Simulation
nRows=36
nColumns=15
endheader
time  TH_x TH_y TH_z SC_y  SC_z  SC_x  AC_y  AC_z  AC_x  GH_y  GH_z  GH_yy  EL_x  PS_y
0.0  0.000000  0.000000  0.000000  -29.312580053588245  -0.26011623371830467  2.652718063668242  50.2813849078421  4.063652418374795  -6.4798450458640495  47.35045610513098  -1.597710335144294  -17.7727744017039  22.644425793601  0.000000
0.031  0.000000  0.000000  0.000000  -28.995460323889457  -0.22624224652346514  2.769739730856158  50.0753413438376  3.9251228086317393  -6.654652134946484  47.21375116626996  -1.608879472778531  -17.84387863125278  22.76021156699747  0.000000
0.062  0.000000  0.000000  0.000000  -28.916162734283805  -0.23478830439174722  2.8745373007473454  49.94234476984876  3.8523421291779214  -6.871343316079656  47.20898490381731  -1.6397042302120846  -17.715756601770913  22.83057878795917  0.000000
0.093  0.000000  0.000000  0.000000  -29.03704561837086  -0.30342886766532867  3.024931213330815  49.88517734461814  3.763526380081655  -7.056480691227931  47.17773823593862  -1.6029423867223003  -17.531393526367943  22.74358665119112  0.000000
0.124  0.000000  0.000000  0.000000  -29.06751849188994  -0.38810763927325137  3.1642961719656237  49.8716396668858  3.6408249619955813  -7.233182635850507  47.01304871580343  -1.4807760249871513  -17.385613336299635  22.63882697368955  0.000000
0.155  0.000000  0.000000  0.000000  -29.11598841869974  -0.4673950069607192  3.2941957891845517  49.869642607042614  3.513421604192396  -7.383819849640793  46.77687831185868  -1.2342959920739145  -17.213322936286325  22.52624870356992  0.000000
0.186  0.000000  0.000000  0.000000  -29.13948591730721  -0.5339231669608336  3.406618449193333  49.848733851655574  3.379360285980044  -7.518962137380092  46.41266172677539  -0.8500301748256496  -17.06494003775947  22.39083231070641  0.000000
0.217  0.000000  0.000000  0.000000  -29.188118806911437  -0.5972900502593604  3.5289089302175984  49.82556860769733  3.2699761057948553  -7.674364510424439  45.95814359944367  -0.3104071367235859  -16.885937941263094  22.21124302613216  0.000000
0.248  0.000000  0.000000  0.000000  -29.272731809397726  -0.6662651466703131  3.6005532897257284  49.7702239445419  3.2219289274578626  -7.826403844809194  45.367672418213196  0.40480714892342656  -16.657597862224883  21.985010949336147  0.000000
0.279  0.000000  0.000000  0.000000  -29.36877704360817  -0.7274341209293588  3.6102666974062827  49.70637422652588  3.186794108553498  -7.9460866413949915  44.58377377697019  1.2954030709458557  -16.34567640907557  21.731700622041302  0.000000
0.31  0.000000  0.000000  0.000000  -29.43122947855555  -0.7595400297314406  3.6515053105260784  49.62713989613011  3.090059986410504  -8.057132934752799  43.58453611708418  2.2860000118655024  -15.964979750555022  21.51632241044073  0.000000
0.34099999999999997  0.000000  0.000000  0.000000  -29.473356994412736  -0.7679069604192622  3.7441865373398437  49.566200985820956  2.9726407299207778  -8.178936434862267  42.435921645085095  3.32626484620835  -15.538746876732802  21.360811864164596  0.000000
0.372  0.000000  0.000000  0.000000  -29.528804919179574  -0.7755918051059878  3.845637308539731  49.532295222627006  2.9084519451458353  -8.282491862952103  41.214227387306515  4.409405389172204  -15.089762396307252  21.240107959654743  0.000000
0.403  0.000000  0.000000  0.000000  -29.620848193708607  -0.7976795485415964  3.9063642786304147  49.572749598546416  2.9114781503367735  -8.312502423708882  39.92404548735426  5.5631952471722546  -14.687420664602403  21.146082486032892  0.000000
0.434  0.000000  0.000000  0.000000  -29.75265834196764  -0.8332914926368913  3.913286875797854  49.7153100507992  2.9658590428799645  -8.225561287021097  38.56653558102919  6.795168493985391  -14.381275753041395  21.106859111429266  0.000000
0.46499999999999997  0.000000  0.000000  0.000000  -29.902722734327938  -0.8752531482487692  3.8781166598662073  49.95841263955164  3.052026784887733  -8.029878348314739  37.161599907536235  8.104673295019381  -14.18025925937294  21.139730095103896  0.000000
0.496  0.000000  0.000000  0.000000  -30.04236447724049  -0.9132668487817802  3.8053587595786484  50.26132403869976  3.1803539218105272  -7.760975946579863  35.750946329513646  9.483328690021981  -14.047797259415194  21.244910322710716  0.000000
0.527  0.000000  0.000000  0.000000  -30.144490710485925  -0.9292731640511811  3.7050421704316516  50.57476261173054  3.355166106694941  -7.452111036760723  34.38003374387083  10.920434417557711  -13.935453427286642  21.383328662341714  0.000000
0.558  0.000000  0.000000  0.000000  -30.204220562860616  -0.9106888089597328  3.6022339063746656  50.86671350145546  3.5646989365221566  -7.138683621044117  33.08668167511428  12.414284221024626  -13.807496579486843  21.511331783598475  0.000000
0.589  0.000000  0.000000  0.000000  -30.229791105049365  -0.8504214729994544  3.5280316860645646  51.11906129765523  3.7902516239296085  -6.846579511222949  31.89472367969398  13.960047294210506  -13.66156841874227  21.604606700291185  0.000000
0.62  0.000000  0.000000  0.000000  -30.23906624823856  -0.746697368857972  3.511272597926955  51.33079393646427  4.01285176536064  -6.5941158632622  30.821652258076845  15.554794856846291  -13.52024588258232  21.660140247775523  0.000000
0.651  0.000000  0.000000  0.000000  -30.247901394900204  -0.6018361576378289  3.5706653067665783  51.508566672318764  4.2205041649435096  -6.386970595545518  29.879795234878475  17.196827049073953  -13.416063365952716  21.682122700304905  0.000000
0.6819999999999999  0.000000  0.000000  0.000000  -30.260497496472098  -0.42404504614473326  3.713784298517335  51.66634689214704  4.404058391317954  -6.224961296036546  29.063142077850205  18.89310125773895  -13.375998645264406  21.671898978385336  0.000000
0.713  0.000000  0.000000  0.000000  -30.267846422149145  -0.2267095902490102  3.9403193881387084  51.815247892984374  4.559107201798881  -6.10839801432444  28.34330308741399  20.654248250366802  -13.405357169215797  21.633116949313862  0.000000
0.744  0.000000  0.000000  0.000000  -30.25359160982149  -0.02357223843142917  4.240064582411452  51.9611715495034  4.687520711354257  -6.037769824645268  27.678580784706046  22.488964089850448  -13.485562665309315  21.574496505056516  0.000000
0.775  0.000000  0.000000  0.000000  -30.207021097246546  0.17546831258119278  4.604924909337015  52.105587303398465  4.7930425821129  -6.0143656756916695  27.03807419969278  24.3930742819459  -13.588226025156155  21.5061748293267  0.000000
0.806  0.000000  0.000000  0.000000  -30.130941845356844  0.36807035244322517  5.034767773559943  52.25218239599918  4.878667463241811  -6.0371707631364435  26.41701641840657  26.34373473886755  -13.699287439778608  21.432384763226967  0.000000
0.837  0.000000  0.000000  0.000000  -30.03987903455807  0.5575265019691049  5.533005907274828  52.40695357218428  4.951749681179351  -6.099390690275858  25.835760777132904  28.300268694619007  -13.826885616305216  21.34817368945889  0.000000
0.868  0.000000  0.000000  0.000000  -29.949023955782533  0.7477366744810378  6.102268547694083  52.575817514205  5.018975537397363  -6.193133971540686  25.32076226918927  30.219752810549636  -13.991349366219284  21.244207403085337  0.000000
0.899  0.000000  0.000000  0.000000  -29.866252408125025  0.939609198727193  6.7422142165777785  52.76003524610179  5.084135388002851  -6.314166376828241  24.887705960290052  32.06889954671707  -14.207217314345348  21.114497658524105  0.000000
0.9299999999999999  0.000000  0.000000  0.000000  -29.790877731966074  1.1307746667321614  7.447900617162148  52.95614741277088  5.145856623700227  -6.462466680967035  24.535052228179268  33.8315706653736  -14.476224271629484  20.957158229884886  0.000000
0.961  0.000000  0.000000  0.000000  -29.719013447707926  1.3182762533493448  8.213009819695682  53.15587750829214  5.200751451523881  -6.64126172071725  24.253118489420658  35.5026492810163  -14.79481182862654  20.772593645578883  0.000000
0.992  0.000000  0.000000  0.000000  -29.64948543624066  1.5020837418218997  9.03358668399567  53.34613796669672  5.246118617165037  -6.857007855467418  24.04023170393216  37.08090077740835  -15.167674140584642  20.560777616130668  0.000000
1.023  0.000000  0.000000  0.000000  -29.58695000494097  1.6873615018183918  9.912152461877605  53.50877031243868  5.280188861968278  -7.118974250691029  23.910693467360787  38.563679754948815  -15.6159046128126  20.321714483989705  0.000000
1.054  0.000000  0.000000  0.000000  -29.540072138644756  1.8833912495251472  10.855432811537328  53.62576865475897  5.300847722406234  -7.434562877591248  23.886335990200312  39.950463197428846  -16.16795992519739  20.056173267939403  0.000000
1.085  0.000000  0.000000  0.000000  -29.51574904049644  2.0989738398947995  11.871090242860012  53.6896625150771  5.305578780504321  -7.803666489246516  23.97123775986208  41.247230396564206  -16.832547326755925  19.76803785833844  0.000000
